<?xml version="1.0" encoding="UTF-8" standalone="no"?>
<!-- Created with Inkscape (http://www.inkscape.org/) -->

<svg
   xmlns:dc="http://purl.org/dc/elements/1.1/"
   xmlns:cc="http://creativecommons.org/ns#"
   xmlns:rdf="http://www.w3.org/1999/02/22-rdf-syntax-ns#"
   xmlns:svg="http://www.w3.org/2000/svg"
   xmlns="http://www.w3.org/2000/svg"
   xmlns:xlink="http://www.w3.org/1999/xlink"
   xmlns:sodipodi="http://sodipodi.sourceforge.net/DTD/sodipodi-0.dtd"
   xmlns:inkscape="http://www.inkscape.org/namespaces/inkscape"
   width="600"
   height="300"
   id="svg2"
   version="1.1">
  <g
     inkscape:label="Layer 1"
     inkscape:groupmode="layer"
     id="layer1"
     transform="translate(-72.408293,-708.68916)">
    <rect
       x="372.38779"
       y="708.68915"
       width="299.97937"
       height="300"
       id="rect1193"
       style="fill:#8f9496" />
    <rect
       x="72.408295"
       y="708.68915"
       width="299.97937"
       height="300"
       id="rect1195"
       style="fill:#20476f" />
    <polyline
       points="492.205,403.837 491.786,405.141 491.781,405.141 491.368,403.837 489.545,403.837   489.545,404.179 490.102,404.179 490.102,405.691 490.508,405.691 490.508,404.179 491.061,404.179 491.55,405.691 492.01,405.691   492.626,403.837 492.205,403.837 "
       id="polyline1197"
       transform="matrix(20.625644,0,0,20.625644,-9498.3441,-7440.8747)"
       style="fill:#c4c5c6" />
    <path
       d="m 333.8385,853.91362 c -3.50636,-1.42317 -7.65211,-0.70127 -10.49845,2.12444 -3.7745,3.79512 -3.7745,9.90031 0.0206,13.6748 0.94878,0.94878 2.00069,1.6913 3.17635,2.14507 3.50636,1.42317 7.67274,0.7219 10.49846,-2.12444 3.79511,-3.7745 3.77449,-9.90031 -0.0206,-13.69543 -0.92815,-0.92815 -2.00069,-1.65005 -3.17635,-2.12444 m -14.54108,-34.38295 c -3.79512,-3.79512 -9.87968,-3.79512 -13.6748,-0.0206 -3.79512,3.79512 -3.81574,9.92094 -0.0206,13.71606 3.79512,3.77449 9.90031,3.77449 13.69543,-0.0206 3.79512,-3.79512 3.77449,-9.90031 0,-13.6748 z m 28.77277,-20.46064 c -1.17566,-1.17566 -2.39257,-2.22757 -3.63011,-3.23823 1.09316,-12.08662 -1.91818,-24.33826 -9.28154,-34.83671 l 0.82503,-0.82502 c 3.79512,-3.79512 3.77449,-9.92094 0,-13.69543 -3.79512,-3.77449 -9.90031,-3.77449 -13.69543,0 l -0.82503,0.82502 c -10.51907,-7.38398 -22.75008,-10.37469 -34.81608,-9.28154 -1.01066,-1.25816 -2.10382,-2.47507 -3.27948,-3.65073 -18.04744,-18.04744 -45.5208,-16.54177 -63.77449,1.21691 4.24888,0 8.51839,1.62942 11.77724,4.88828 1.17566,1.17566 2.14507,2.47507 2.88759,3.87762 10.89034,-8.58027 24.54452,-10.18907 35.33173,-2.02132 -5.6308,2.4132 -11.03472,5.77518 -15.98487,10.02407 4.72327,-0.41252 9.63217,1.19628 13.26228,4.8264 2.00069,1.98006 3.34136,4.35201 4.12513,6.84771 11.61224,-8.06463 25.39017,-9.87968 37.10554,-3.34135 l -16.87178,16.8924 c 3.3001,0.53627 6.47645,2.08319 9.03403,4.64077 2.53696,2.53695 4.10451,5.73393 4.6614,9.03403 l 16.87177,-16.8924 c 6.45583,11.55036 4.78515,25.08078 -2.97009,36.56927 1.98006,0.82502 3.81575,2.04193 5.44517,3.63011 4.33139,4.35201 5.75456,10.49845 4.31076,16.02612 5.01203,-5.40391 8.86903,-11.40598 11.59161,-17.73805 8.16776,10.78721 6.53833,24.48264 -2.06256,35.35235 1.40254,0.74253 2.72258,1.71193 3.89825,2.88759 3.2176,3.23823 4.84702,7.52836 4.84702,11.77725 17.75868,-18.23307 19.28498,-45.72706 1.21691,-63.79512 z M 226.39952,759.11816 c 3.81574,-3.79512 3.81574,-9.90031 0,-13.6748 -3.77449,-3.79512 -9.87968,-3.79512 -13.6748,-0.0206 -3.77449,3.79512 -3.77449,9.90031 0,13.6748 3.79512,3.7745 9.90031,3.79512 13.6748,0.0206 z m 68.88965,41.72568 c 3.79512,-3.75387 3.79512,-9.90031 0,-13.67481 -3.77449,-3.77449 -9.87968,-3.77449 -13.6748,0 -3.79512,3.7745 -3.81574,9.92094 -0.0206,13.69543 3.7745,3.77449 9.92094,3.77449 13.69543,-0.0206 z m 41.45755,-58.78309 3.91887,3.9395 4.68202,-4.6614 4.68202,4.6614 3.9395,-3.9395 -4.68202,-4.66139 4.68202,-4.68203 -3.9395,-3.93949 -4.68202,4.68202 -4.68202,-4.68202 -3.91887,3.93949 4.66139,4.68203 -4.66139,4.66139 z M 187.10767,895.32991 v -20.62564 c 4.14575,2.43382 8.10588,5.38329 11.65349,8.95153 3.54761,3.56823 6.55895,7.50773 9.03403,11.67411 h -20.68752 z m 83.53386,0 0,0 h -39.47749 c -3.87762,-9.67343 -9.69405,-18.72808 -17.51117,-26.56583 -7.83774,-7.81712 -16.87177,-13.63355 -26.52458,-17.46992 l -0.0206,-39.49811 h -0.0413 c -38.52871,-9.94156 -81.20316,0.18563 -111.357854,30.36095 -1.134411,1.13441 -2.22757,2.28945 -3.300103,3.44448 v 32.77415 c 4.393262,-8.14713 9.962186,-15.81987 16.830525,-22.68821 21.533172,-21.53317 50.656582,-30.83533 78.769332,-27.94774 l -0.0206,18.68683 c -23.36886,-3.01134 -47.74837,4.41389 -65.69268,22.33757 -25.80268,25.80268 -29.886557,65.01203 -12.416637,95.1461 l -15.118597,15.13922 14.231694,14.25232 13.24166,-13.24166 c 0.0206,0.0206 0.0413,0.0412 0.0619,0.0619 18.02681,18.04744 42.61258,25.47267 66.10519,22.35817 l -0.0206,-21.28563 c -18.00618,3.3001 -37.29116,-2.02132 -51.21347,-15.94363 0,-0.0206 -0.0413,-0.0412 -0.0413,-0.0619 l 10.18907,-10.18907 16.47989,16.47989 11.77724,-11.77724 -16.50052,-16.45927 7.85837,-7.85837 16.47989,16.47989 10.95222,-10.93159 -30.73221,-30.75284 -38.13681,38.13682 c -9.694057,-21.26504 -5.816436,-47.17085 11.65348,-64.66139 13.83981,-13.83981 32.91853,-19.16123 50.82159,-15.98488 v 46.75834 h 46.82021 c 1.17566,6.78583 1.15504,13.71605 -0.0825,20.48126 h 21.26504 c 0.90753,-6.80646 0.90753,-13.6748 0.0412,-20.48126 h 18.62496 c 2.90821,28.11275 -6.39395,57.23616 -27.92712,78.76933 -6.20832,6.1877 -13.03541,11.32351 -20.23376,15.48991 h 31.61911 c 0.70127,-0.6601 1.4438,-1.2788 2.12444,-1.9595 30.2372,-30.1753 40.34376,-72.84976 30.42283,-111.39909 z m 30.01031,-57.17428 c -5.61018,-5.61018 -6.39395,-14.2317 -2.3307,-20.6669 -1.87693,-2.47508 -3.85699,-4.92953 -5.87831,-7.28085 -5.48642,1.32004 -11.52973,-0.10313 -15.79924,-4.39326 -4.29013,-4.29014 -5.73393,-10.33345 -4.37264,-15.81987 -2.82571,-2.35133 -5.65142,-4.62015 -8.53901,-6.80647 -6.45583,3.9395 -14.93297,3.1351 -20.48127,-2.43382 -3.67136,-3.65074 -5.28016,-8.60089 -4.80577,-13.38604 -2.31008,-1.17567 -4.68202,-2.26883 -7.01272,-3.36198 -0.0206,0.0206 -0.0412,0.0412 -0.0619,0.0619 -5.50705,5.50705 -13.86043,6.33208 -20.25438,2.55758 v 10.2097 c 21.07941,7.56961 40.88002,19.80061 57.81368,36.71364 16.87178,16.89241 29.14403,36.71365 36.69302,57.79306 h 10.20969 c -3.77449,-6.39395 -2.92884,-14.76796 2.55758,-20.25439 0.0206,-0.0206 0.0413,-0.0412 0.0619,-0.0619 -1.23754,-2.72259 -2.53695,-5.44517 -3.91887,-8.12651 -4.95016,0.61877 -10.10657,-0.94878 -13.88106,-4.74389 z M 72.408463,816.14806 v 23.92575 c 0.206256,-0.20626 0.391887,-0.41251 0.598143,-0.61877 46.902714,-46.92334 123.031964,-46.92334 169.934684,0.0206 46.71708,46.69646 46.92334,122.22756 0.72189,169.21283 h 23.63699 C 309.10835,954.56676 305.25136,876.4987 255.58481,826.83215 205.52637,776.77371 126.59203,773.2261 72.408463,816.14806 z M 261.89625,775.8043 c 3.7745,-3.77449 3.7745,-9.9003 -0.0206,-13.6748 -3.77449,-3.77449 -9.87969,-3.79512 -13.6748,-0.0206 -3.81575,3.79512 -3.79512,9.92093 0,13.71605 3.77449,3.77449 9.92093,3.77449 13.69542,-0.0206 z"
       id="path1199"
       style="fill:#ffffff" />
    <path
       d="m 261.89625,775.8043 c 3.7745,-3.77449 3.7745,-9.9003 -0.0206,-13.6748 -3.77449,-3.77449 -9.87969,-3.79512 -13.6748,-0.0206 -3.81575,3.79512 -3.79512,9.92093 0,13.71605 3.77449,3.77449 9.92093,3.77449 13.69542,-0.0206"
       id="path1201"
       style="fill:#ffffff" />
    <path
       d="m 72.408463,816.14806 v 23.92575 c 0.206256,-0.20626 0.391887,-0.41251 0.598143,-0.61877 46.902714,-46.92334 123.031964,-46.92334 169.934684,0.0206 46.71708,46.69646 46.92334,122.22756 0.72189,169.21283 h 23.63699 C 309.10835,954.56676 305.25136,876.4987 255.58481,826.83215 205.52637,776.77371 126.59203,773.2261 72.408463,816.14806"
       id="path1203"
       style="fill:#ffffff" />
    <path
       d="m 300.65184,838.15563 c -5.61018,-5.61018 -6.39395,-14.2317 -2.3307,-20.6669 -1.87693,-2.47508 -3.85699,-4.92953 -5.87831,-7.28085 -5.48642,1.32004 -11.52973,-0.10313 -15.79924,-4.39326 -4.29013,-4.29014 -5.73393,-10.33345 -4.37264,-15.81987 -2.82571,-2.35133 -5.65142,-4.62015 -8.53901,-6.80647 -6.45583,3.9395 -14.93297,3.1351 -20.48127,-2.43382 -3.67136,-3.65074 -5.28016,-8.60089 -4.80577,-13.38604 -2.31008,-1.17567 -4.68202,-2.26883 -7.01272,-3.36198 -0.0206,0.0206 -0.0412,0.0412 -0.0619,0.0619 -5.50705,5.50705 -13.86043,6.33208 -20.25438,2.55758 v 10.2097 c 21.07941,7.56961 40.88002,19.80061 57.81368,36.71364 16.87178,16.89241 29.14403,36.71365 36.69302,57.79306 h 10.20969 c -3.77449,-6.39395 -2.92884,-14.76796 2.55758,-20.25439 0.0206,-0.0206 0.0413,-0.0412 0.0619,-0.0619 -1.23754,-2.72259 -2.53695,-5.44517 -3.91887,-8.12651 -4.95016,0.61877 -10.10657,-0.94878 -13.88106,-4.74389"
       id="path1205"
       style="fill:#ffffff" />
    <path
       d="m 270.64153,895.32991 0,0 h -39.47749 c -3.87762,-9.67343 -9.69405,-18.72808 -17.51117,-26.56583 -7.83774,-7.81712 -16.87177,-13.63355 -26.52458,-17.46992 l -0.0206,-39.49811 h -0.0413 c -38.52871,-9.94156 -81.20316,0.18563 -111.357854,30.36095 -1.134411,1.13441 -2.22757,2.28945 -3.300103,3.44448 v 32.77415 c 4.393262,-8.14713 9.962186,-15.81987 16.830525,-22.68821 21.533172,-21.53317 50.656582,-30.83533 78.769332,-27.94774 l -0.0206,18.68683 c -23.36886,-3.01134 -47.74837,4.41389 -65.69268,22.33757 -25.80268,25.80268 -29.886557,65.01203 -12.416637,95.1461 l -15.118597,15.13922 14.231694,14.25232 13.24166,-13.24166 c 0.0206,0.0206 0.0413,0.0412 0.0619,0.0619 18.02681,18.04744 42.61258,25.47267 66.10519,22.35817 l -0.0206,-21.28563 c -18.00618,3.3001 -37.29116,-2.02132 -51.21347,-15.94363 0,-0.0206 -0.0413,-0.0412 -0.0413,-0.0619 l 10.18907,-10.18907 16.47989,16.47989 11.77724,-11.77724 -16.50052,-16.45927 7.85837,-7.85837 16.47989,16.47989 10.95222,-10.93159 -30.73221,-30.75284 -38.13681,38.13682 c -9.694057,-21.26504 -5.816436,-47.17085 11.65348,-64.66139 13.83981,-13.83981 32.91853,-19.16123 50.82159,-15.98488 v 46.75834 h 46.82021 c 1.17566,6.78583 1.15504,13.71605 -0.0825,20.48126 h 21.26504 c 0.90753,-6.80646 0.90753,-13.6748 0.0412,-20.48126 h 18.62496 c 2.90821,28.11275 -6.39395,57.23616 -27.92712,78.76933 -6.20832,6.1877 -13.03541,11.32351 -20.23376,15.48991 h 31.61911 c 0.70127,-0.6601 1.4438,-1.2788 2.12444,-1.9595 30.2372,-30.1753 40.34376,-72.84976 30.42283,-111.39909"
       id="path1207"
       style="fill:#ffffff" />
    <path
       d="m 187.10767,895.32991 v -20.62564 c 4.14575,2.43382 8.10588,5.38329 11.65349,8.95153 3.54761,3.56823 6.55895,7.50773 9.03403,11.67411 h -20.68752"
       id="path1209"
       style="fill:#ffffff" />
    <polyline
       points="476.838,396.736 477.029,396.927 477.255,396.701 477.482,396.927 477.673,396.736 477.447,396.51   477.673,396.283 477.482,396.092 477.255,396.319 477.029,396.092 476.838,396.283 477.064,396.51 476.838,396.736 "
       id="polyline1211"
       transform="matrix(20.625644,0,0,20.625644,-9498.3441,-7440.8747)"
       style="fill:#ffffff" />
    <path
       d="m 295.28917,800.84384 c 3.79512,-3.75387 3.79512,-9.90031 0,-13.67481 -3.77449,-3.77449 -9.87968,-3.77449 -13.6748,0 -3.79512,3.7745 -3.81574,9.92094 -0.0206,13.69543 3.7745,3.77449 9.92094,3.77449 13.69543,-0.0206"
       id="path1213"
       style="fill:#ffffff" />
    <path
       d="m 226.39952,759.11816 c 3.81574,-3.79512 3.81574,-9.90031 0,-13.6748 -3.77449,-3.79512 -9.87968,-3.79512 -13.6748,-0.0206 -3.77449,3.79512 -3.77449,9.90031 0,13.6748 3.79512,3.7745 9.90031,3.79512 13.6748,0.0206"
       id="path1215"
       style="fill:#ffffff" />
    <path
       d="m 348.07019,799.07003 c -1.17566,-1.17566 -2.39257,-2.22757 -3.63011,-3.23823 1.09316,-12.08662 -1.91818,-24.33826 -9.28154,-34.83671 l 0.82503,-0.82502 c 3.79512,-3.79512 3.77449,-9.92094 0,-13.69543 -3.79512,-3.77449 -9.90031,-3.77449 -13.69543,0 l -0.82503,0.82502 c -10.51907,-7.38398 -22.75008,-10.37469 -34.81608,-9.28154 -1.01066,-1.25816 -2.10382,-2.47507 -3.27948,-3.65073 -18.04744,-18.04744 -45.5208,-16.54177 -63.77449,1.21691 4.24888,0 8.51839,1.62942 11.77724,4.88828 1.17566,1.17566 2.14507,2.47507 2.88759,3.87762 10.89034,-8.58027 24.54452,-10.18907 35.33173,-2.02132 -5.6308,2.4132 -11.03472,5.77518 -15.98487,10.02407 4.72327,-0.41252 9.63217,1.19628 13.26228,4.8264 2.00069,1.98006 3.34136,4.35201 4.12513,6.84771 11.61224,-8.06463 25.39017,-9.87968 37.10554,-3.34135 l -16.87178,16.8924 c 3.3001,0.53627 6.47645,2.08319 9.03403,4.64077 2.53696,2.53695 4.10451,5.73393 4.6614,9.03403 l 16.87177,-16.8924 c 6.45583,11.55036 4.78515,25.08078 -2.97009,36.56927 1.98006,0.82502 3.81575,2.04193 5.44517,3.63011 4.33139,4.35201 5.75456,10.49845 4.31076,16.02612 5.01203,-5.40391 8.86903,-11.40598 11.59161,-17.73805 8.16776,10.78721 6.53833,24.48264 -2.06256,35.35235 1.40254,0.74253 2.72258,1.71193 3.89825,2.88759 3.2176,3.23823 4.84702,7.52836 4.84702,11.77725 17.75868,-18.23307 19.28498,-45.72706 1.21691,-63.79512"
       id="path1217"
       style="fill:#ffffff" />
    <path
       d="m 319.29742,819.53067 c -3.79512,-3.79512 -9.87968,-3.79512 -13.6748,-0.0206 -3.79512,3.79512 -3.81574,9.92094 -0.0206,13.71606 3.79512,3.77449 9.90031,3.77449 13.69543,-0.0206 3.79512,-3.79512 3.77449,-9.90031 0,-13.6748"
       id="path1219"
       style="fill:#ffffff" />
    <path
       d="m 333.8385,853.91362 c -3.50636,-1.42317 -7.65211,-0.70127 -10.49845,2.12444 -3.7745,3.79512 -3.7745,9.90031 0.0206,13.6748 0.94878,0.94878 2.00069,1.6913 3.17635,2.14507 3.50636,1.42317 7.67274,0.7219 10.49846,-2.12444 3.79511,-3.7745 3.77449,-9.90031 -0.0206,-13.69543 -0.92815,-0.92815 -2.00069,-1.65005 -3.17635,-2.12444"
       id="path1221"
       style="fill:#ffffff" />
    <path
       clip-rule="evenodd"
       d="m 389.15648,835.16491 h 13.57167 c 2.72259,0 7.26023,0.53626 7.26023,6.88896 0,6.08457 -4.20763,7.11585 -8.18838,7.11585 h -12.6229 v -14.00481 m -0.0206,18.74871 h 13.20041 c 6.55895,0 7.2396,3.96012 7.2396,7.36335 0,1.54693 0.16501,7.7965 0.94878,10.33345 h 6.68271 v -0.92815 c -1.6913,-0.96941 -1.95944,-1.83569 -2.02131,-4.12513 l -0.37127,-7.46649 c -0.20625,-5.73392 -2.4957,-6.76521 -4.80577,-7.77586 2.53695,-1.5263 5.58955,-3.7745 5.58955,-9.83844 0,-8.70402 -6.62083,-11.03471 -13.26229,-11.03471 h -18.64558 v 41.16878 h 5.46579 v -17.6968 z m 36.033,0.35063 c 0,-4.66139 3.60949,-8.99278 8.16775,-8.99278 6.00207,0 7.92025,4.33139 8.20901,8.99278 h -16.37676 z m 16.14988,7.9615 c -0.18563,2.2482 -2.92884,5.89894 -7.59024,5.89894 -5.65143,0 -8.53902,-3.60949 -8.53902,-9.85906 h 21.4713 c 0,-10.64283 -4.14576,-17.5318 -12.6229,-17.5318 -9.7353,0 -14.12856,7.42523 -14.12856,16.74802 0,8.64215 4.86765,14.99485 13.15916,14.99485 4.72327,0 6.60021,-1.15504 7.98212,-2.04194 3.69199,-2.53696 5.03266,-6.78584 5.19767,-8.20901 h -4.92953 z m 27.45273,-0.99003 c 0,4.022 -4.49639,7.0746 -9.07528,7.0746 -3.75387,0 -5.36267,-1.95944 -5.36267,-5.23892 0,-3.79511 3.87762,-4.53764 6.31145,-4.86765 6.12581,-0.82502 7.34272,-1.27879 8.14712,-1.91818 v 4.95015 z m -13.57167,-10.49845 c 0.37126,-2.31007 1.15503,-5.81643 6.76521,-5.81643 4.68202,0 6.93021,1.73255 6.93021,4.88827 0,2.99072 -1.40254,3.44449 -2.59883,3.56824 l -8.16775,1.03128 c -8.18838,1.03129 -8.91028,6.88897 -8.91028,9.4053 0,5.15641 3.81574,8.66277 9.19904,8.66277 5.73392,0 8.70402,-2.74321 10.6222,-4.84703 0.18563,2.26882 0.84565,4.55827 5.21829,4.55827 1.13441,0 1.85631,-0.33001 2.70196,-0.57752 v -3.65074 l -1.62943,0.22688 c -1.01065,0 -1.62942,-0.51564 -1.62942,-1.7738 v -17.28429 c 0,-7.69337 -8.53902,-8.39464 -10.89034,-8.39464 -7.26023,0 -11.92162,2.82571 -12.12788,10.00344 h 4.51702 z m 30.25781,20.87315 h -4.92952 v -41.16878 h 4.92952 v 41.16878 z m 47.97525,0 h -7.87899 v -18.52183 c 0,-4.53764 -1.95944,-6.02269 -4.24889,-6.02269 -3.89824,0 -5.32141,2.64009 -5.32141,6.24957 v 18.29495 h -7.89962 v -18.3362 c 0,-2.59883 0,-6.20832 -4.70265,-6.20832 -3.71262,0 -4.86765,2.64009 -4.86765,5.96082 v 18.5837 h -7.879 v -30.50533 h 7.52836 v 4.45514 c 1.13441,-2.00069 3.3001,-5.25954 8.58027,-5.25954 4.31076,0 6.31145,1.6088 8.31213,4.86765 1.01066,-1.48504 3.19698,-4.86765 7.9615,-4.86765 5.83706,0 10.39533,3.50636 10.39533,10.2097 v 21.10003 z m 21.43005,-10.95222 c 0,3.73325 -3.52699,6.02269 -7.01272,6.02269 -1.5263,0 -3.67137,-0.84565 -3.67137,-3.67136 0,-3.32073 2.43383,-4.06325 5.34205,-4.5789 3.25885,-0.53626 4.57889,-1.0519 5.34204,-1.67067 v 3.89824 z m 7.71399,-11.52973 c 0,-7.52836 -7.71399,-8.82778 -11.901,-8.82778 -6.14644,0 -12.49914,1.29942 -13.38604,10.66346 h 7.59024 c 0.22688,-1.79443 0.90752,-4.24888 4.8264,-4.24888 2.02131,0 5.15641,0.18563 5.15641,3.56823 0,1.71193 -1.48505,2.22757 -2.74321,2.39258 l -7.0746,1.09316 c -5.01203,0.74252 -8.74527,3.79512 -8.74527,9.75593 0,6.31145 4.62014,8.91028 9.09591,8.91028 5.38329,0 7.89962,-2.53696 9.69405,-4.43452 0.165,1.71193 0.28876,2.1657 0.74252,3.60949 h 8.45652 v -1.21691 c -0.94878,-0.35064 -1.73256,-1.13441 -1.73256,-4.7439 v -16.52114 z m 11.01409,7.46648 c 0,-4.80577 1.6913,-9.34342 6.70334,-9.34342 5.40391,0 6.74458,4.92953 6.74458,9.79719 0,4.53764 -1.95943,8.78652 -6.97147,8.78652 -5.0739,0 -6.47645,-5.6308 -6.47645,-9.24029 z m 20.99691,-26.15331 h -7.879 v 14.62358 c -1.36129,-1.95944 -3.73324,-4.76453 -8.80715,-4.76453 -6.53833,0 -12.39601,5.15641 -12.39601,15.71674 0,8.35339 3.71262,16.41802 12.54039,16.41802 3.27948,0 6.76521,-1.21692 8.70402,-4.68202 l 0.10313,3.85699 h 7.71399 v -41.16878 z m 4.66139,10.66345 h 7.52836 v 5.28017 c 1.75318,-3.11447 3.54761,-6.08457 8.31214,-6.08457 l 1.50567,0.10313 v 8.16776 l -2.22757,-0.12376 c -6.12582,0 -7.28085,3.89825 -7.28085,7.28085 v 15.86112 h -7.85837 v -30.4847 z m 19.82125,0 h 7.87899 v 30.50533 h -7.87899 v -30.50533 z m 7.87899,-3.60948 h -7.87899 v -7.48711 h 7.87899 v 7.48711 z m 11.52974,19.09934 c 0,-4.80577 1.6913,-9.34342 6.70333,-9.34342 5.40392,0 6.72396,4.92953 6.72396,9.79719 0,4.53764 -1.95943,8.78652 -6.97147,8.78652 -5.05328,0 -6.45582,-5.6308 -6.45582,-9.24029 z m 20.9969,-26.15331 h -7.87899 v 14.62358 c -1.3613,-1.95944 -3.71262,-4.76453 -8.78653,-4.76453 -6.55895,0 -12.41663,5.15641 -12.41663,15.71674 0,8.35339 3.73324,16.41802 12.56101,16.41802 3.25885,0 6.76521,-1.21692 8.6834,-4.68202 l 0.10313,3.85699 h 7.71399 v -41.16878 z"
       id="path1223"
       style="fill:#ffffff;fill-rule:evenodd" />
    <path
       clip-rule="evenodd"
       d="m 659.49679,830.44164 v 41.16878 h -7.71399 l -0.10313,-3.85699 c -1.91818,3.4651 -5.42454,4.68202 -8.68339,4.68202 -8.8484,0 -12.56102,-8.06463 -12.56102,-16.41802 0,-10.56033 5.83706,-15.71674 12.41664,-15.71674 5.07391,0 7.4046,2.80509 8.78652,4.76453 v -14.62358 h 7.85837 m -20.9969,26.15331 c 0,3.60949 1.38192,9.24029 6.45582,9.24029 5.01204,0 6.97147,-4.24888 6.97147,-8.78652 0,-4.86766 -1.32004,-9.79719 -6.72396,-9.79719 -5.01203,0 -6.70333,4.53765 -6.70333,9.34342 z"
       id="path1225"
       style="fill:#ffffff;fill-rule:evenodd" />
    <rect
       x="619.09143"
       y="830.00897"
       width="7.8789959"
       height="7.4871087"
       id="rect1227"
       style="fill:#ffffff" />
    <rect
       x="619.09143"
       y="841.10547"
       width="7.8789959"
       height="30.505327"
       id="rect1229"
       style="fill:#ffffff" />
    <path
       d="m 599.26991,841.10509 h 7.52836 v 5.28017 c 1.75318,-3.11447 3.54761,-6.08457 8.31214,-6.08457 l 1.50567,0.10313 v 8.16776 l -2.22757,-0.12376 c -6.12582,0 -7.28085,3.89825 -7.28085,7.28085 v 15.86112 h -7.85837 v -30.4847"
       id="path1231"
       style="fill:#ffffff" />
    <path
       clip-rule="evenodd"
       d="m 594.60852,830.44164 v 41.16878 h -7.71399 l -0.10313,-3.85699 c -1.93881,3.4651 -5.42455,4.68202 -8.70402,4.68202 -8.8484,0 -12.54039,-8.06463 -12.54039,-16.41802 0,-10.56033 5.83705,-15.71674 12.39601,-15.71674 5.07391,0 7.42523,2.80509 8.80715,4.76453 v -14.62358 h 7.85837 m -20.99691,26.15331 c 0,3.60949 1.40255,9.24029 6.47645,9.24029 5.01204,0 6.97147,-4.24888 6.97147,-8.78652 0,-4.86766 -1.34067,-9.79719 -6.74458,-9.79719 -5.01204,0 -6.70334,4.53765 -6.70334,9.34342 z"
       id="path1233"
       style="fill:#ffffff;fill-rule:evenodd" />
    <path
       clip-rule="evenodd"
       d="m 562.59752,849.12847 v 16.52114 c 0,3.60949 0.78377,4.39326 1.73255,4.7439 v 1.21691 h -8.45651 c -0.45377,-1.44379 -0.57752,-1.89756 -0.74253,-3.60949 -1.79443,1.89756 -4.31075,4.43452 -9.69405,4.43452 -4.49639,0 -9.09591,-2.59883 -9.09591,-8.91028 0,-5.96081 3.73324,-9.01341 8.74528,-9.75593 l 7.07459,-1.09316 c 1.25817,-0.16501 2.74321,-0.68065 2.74321,-2.39258 0,-3.3826 -3.1351,-3.56823 -5.15641,-3.56823 -3.91887,0 -4.62014,2.45445 -4.8264,4.24888 h -7.59024 c 0.88691,-9.36404 7.26023,-10.66346 13.38605,-10.66346 4.16638,0 11.88037,1.29942 11.88037,8.82778 m -7.71399,11.52973 v -3.89824 c -0.76315,0.61877 -2.08319,1.13441 -5.34204,1.67067 -2.90822,0.51565 -5.34205,1.25817 -5.34205,4.5789 0,2.82571 2.14507,3.67136 3.67137,3.67136 3.48573,0 7.01272,-2.28944 7.01272,-6.02269 z"
       id="path1235"
       style="fill:#ffffff;fill-rule:evenodd" />
    <path
       d="m 533.45348,871.61042 h -7.87899 v -18.52183 c 0,-4.53764 -1.95944,-6.02269 -4.24889,-6.02269 -3.89824,0 -5.32141,2.64009 -5.32141,6.24957 v 18.29495 h -7.89962 v -18.3362 c 0,-2.59883 0,-6.20832 -4.70265,-6.20832 -3.71262,0 -4.86765,2.64009 -4.86765,5.96082 v 18.5837 h -7.879 v -30.50533 h 7.52836 v 4.45514 c 1.13441,-2.00069 3.3001,-5.25954 8.58027,-5.25954 4.31076,0 6.31145,1.6088 8.31213,4.86765 1.01066,-1.48504 3.19698,-4.86765 7.9615,-4.86765 5.83706,0 10.39533,3.50636 10.39533,10.2097 v 21.10003"
       id="path1237"
       style="fill:#ffffff" />
    <rect
       x="480.52795"
       y="830.44202"
       width="4.9295287"
       height="41.168785"
       id="rect1239"
       style="fill:#ffffff" />
    <path
       clip-rule="evenodd"
       d="m 455.22042,850.73727 h -4.51702 c 0.20626,-7.17773 4.86765,-10.00344 12.12788,-10.00344 2.35132,0 10.89034,0.70127 10.89034,8.39464 v 17.28429 c 0,1.25816 0.61877,1.7738 1.62942,1.7738 l 1.62943,-0.22688 v 3.65074 c -0.84565,0.24751 -1.56755,0.57752 -2.70196,0.57752 -4.37264,0 -5.03266,-2.28945 -5.21829,-4.55827 -1.91818,2.10382 -4.86765,4.84703 -10.6222,4.84703 -5.40392,0 -9.19904,-3.50636 -9.19904,-8.66277 0,-2.51633 0.70127,-8.37401 8.91028,-9.4053 l 8.16775,-1.03128 c 1.19629,-0.12375 2.59883,-0.57752 2.59883,-3.56824 0,-3.15572 -2.24819,-4.88827 -6.93021,-4.88827 -5.6308,0 -6.41458,3.50636 -6.76521,5.81643 m 13.57167,10.49845 v -4.95015 c -0.78378,0.63939 -2.02131,1.09316 -8.14713,1.91818 -2.4132,0.33001 -6.31145,1.07254 -6.31145,4.86765 0,3.27948 1.6088,5.23892 5.36267,5.23892 4.59952,0 9.09591,-3.0526 9.09591,-7.0746 z"
       id="path1241"
       style="fill:#ffffff;fill-rule:evenodd" />
    <path
       clip-rule="evenodd"
       d="m 441.33936,862.22575 h 4.9089 c -0.16501,1.42317 -1.50567,5.67205 -5.19766,8.20901 -1.36129,0.8869 -3.25885,2.04194 -7.98213,2.04194 -8.27088,0 -13.15916,-6.3527 -13.15916,-14.99485 0,-9.32279 4.39326,-16.74802 14.12857,-16.74802 8.47714,0 12.62289,6.88897 12.62289,17.5318 h -21.47129 c 0,6.24957 2.88759,9.85906 8.53901,9.85906 4.68203,0 7.42524,-3.65074 7.61087,-5.89894 m -16.14988,-7.9615 h 16.37676 c -0.30939,-4.66139 -2.20694,-8.99278 -8.20901,-8.99278 -4.55826,0 -8.16775,4.33139 -8.16775,8.99278 z"
       id="path1243"
       style="fill:#ffffff;fill-rule:evenodd" />
    <path
       clip-rule="evenodd"
       d="m 389.15648,853.91362 v 17.6968 h -5.4658 v -41.16878 h 18.64558 c 6.62084,0 13.26229,2.33069 13.26229,11.03471 0,6.06394 -3.03197,8.31214 -5.58955,9.83844 2.31008,1.01065 4.62015,2.04194 4.80578,7.77586 l 0.37126,7.46649 c 0.0619,2.28944 0.33001,3.15572 2.02131,4.12513 v 0.92815 h -6.68271 c -0.78377,-2.53695 -0.94877,-8.78652 -0.94877,-10.33345 0,-3.40323 -0.66003,-7.36335 -7.23961,-7.36335 h -13.17978 m 0,-18.74871 v 14.00481 h 12.62289 c 3.98075,0 8.18838,-1.03128 8.18838,-7.11585 0,-6.3527 -4.53764,-6.88896 -7.26022,-6.88896 h -13.55105 z"
       id="path1245"
       style="fill:#ffffff;fill-rule:evenodd" />
  </g>
</svg>
